# xmcd
#
# Track frame offsets:
#   150
#   20811
#   34555
#   54924
#   76860
#   90330
#   108709
#   127461
#   144133
#   176166
#   192671
#   212086
#
# Disc length: 3052 seconds
#
# Revision: 0
# Processed by: cddbd v1.5.2PL0 Copyright (c) Steve Scherf et al.
# Submitted via: Media_Universe 3.0
#
DISCID=a70bea0c
DTITLE=Piet Veerman - Piet Veerman - Collection
DYEAR=1900
DGENRE=Pop
TTITLE0=Piet Veerman - Sailin' Home
TTITLE1=Piet Veerman - Arms Of Mary
TTITLE2=Piet Veerman - Starry Night
TTITLE3=Piet Veerman - A New Tomorrow
TTITLE4=Piet Veerman - Annie's Song
TTITLE5=Piet Veerman - Whenever You Need Me
TTITLE6=Piet Veerman - Fight Alone
TTITLE7=Piet Veerman - Old Time Feeling
TTITLE8=Piet Veerman - Follow Me
TTITLE9=Piet Veerman - 10.000 Miles
TTITLE10=Piet Veerman - Cry Of Freedom
TTITLE11=Piet Veerman - Vaya Con Dios
EXTD=
EXTT0=
EXTT1=
EXTT2=
EXTT3=
EXTT4=
EXTT5=
EXTT6=
EXTT7=
EXTT8=
EXTT9=
EXTT10=
EXTT11=
PLAYORDER=
